:SAMPLES-PER-SECOND 30
:FULLY-SPECIFIED
:DEGREES
362
root  -14.1635 39.1 2.35942 -1.60989 10.9277 -2.50578
RightUpLeg  15.9977 -11.5998 -4.18487
RightLeg  4.87655 -30.5047 3.80596
RightFoot  -12.5859 0.00457462 8.22427
RightToes  4.01633e-009 0 -3.6325e-017
Spine  4.80482 0.617429 8.34867
Spine1  8.21211 1.99632 -4.30165
HEad  -14.7784 7.02158 -4.55512
LeftShoulder1  0.117372 3.179 -30.0706
LeftArm  -4.64256 17.0806 -39.9836
LeftForeArm  23.3344 -12.3354 -6.57889
LeftHand  -0.0108151 3.84824 -0.787909
RightShoulder  -0.664964 -5.50538 26.5362
RightArm  15.384 -1.39069 42.6419
RightForeArm  0.951139 12.3031 6.77037
RightHand  -0.541972 1.85747 -8.85091
LeftUpLeg  -14.1529 2.72861 -4.58062
LeftLeg  -1.65147 32.7024 -3.90445
LeftFoot  0.105015 -0.324573 2.95906
LeftToes  -1.95724e-009 9.62483e-011 3.51777e-011
363
root  -14.2126 38.8813 3.44665 -2.76237 12.1603 -2.2218
RightUpLeg  19.3543 -12.7079 -5.28773
RightLeg  5.37401 -29.5036 3.90954
RightFoot  -13.6792 0.126275 10.7009
RightToes  4.01633e-009 0 -3.6325e-017
Spine  4.5676 0.796275 5.53628
Spine1  9.11838 2.08144 -3.92277
HEad  -15.1672 7.92769 -2.83052
LeftShoulder1  -0.0122717 3.53743 -30.5309
LeftArm  -5.97413 17.3697 -38.5205
LeftForeArm  25.4653 -10.0059 -6.84845
LeftHand  -0.00753268 4.1464 -1.40372
RightShoulder  -0.666831 -5.49704 26.7553
RightArm  14.9341 -2.03257 44.5855
RightForeArm  1.64283 12.4132 6.64941
RightHand  -0.50204 1.62518 -8.46167
LeftUpLeg  -15.5027 3.92437 -5.15504
LeftLeg  6.28857 30.8774 -0.704564
LeftFoot  1.55904 -1.61701 14.2803
LeftToes  -1.95724e-009 9.62483e-011 3.51777e-011
364
root  -14.1615 38.6925 4.51934 -3.49625 13.7981 -1.08154
RightUpLeg  21.6993 -18.5374 -9.2554
RightLeg  9.27845 -23.4807 1.45056
RightFoot  -14.5002 0.318857 14.8505
RightToes  4.01633e-009 0 -3.6325e-017
Spine  4.51973 0.949403 2.68655
Spine1  9.22218 2.21028 -4.38019
HEad  -14.9798 8.4053 -1.32014
LeftShoulder1  -0.0734476 3.70242 -30.8895
LeftArm  -6.5524 17.5816 -36.9209
LeftForeArm  25.7468 -8.44179 -6.86191
LeftHand  -0.0263342 4.75573 -0.0255927
RightShoulder  -0.777375 -5.75521 27.8922
RightArm  14.4913 -2.85918 45.9941
RightForeArm  2.3246 12.7178 6.46243
RightHand  -0.472321 1.62921 -7.96646
LeftUpLeg  -16.2643 7.13781 -7.08814
LeftLeg  13.2263 26.1425 2.30197
LeftFoot  0.792379 -1.90349 17.6859
LeftToes  -1.95724e-009 9.62483e-011 3.51777e-011
365
root  -14.0186 38.5313 5.58321 -3.78197 16.2944 0.289734
RightUpLeg  23.4429 -29.1246 -15.9697
RightLeg  15.7767 -12.4776 -2.28763
RightFoot  -14.3893 0.4367 20.7075
RightToes  4.01633e-009 0 -3.6325e-017
Spine  4.28784 0.950228 0.467898
Spine1  8.94063 2.23049 -5.23927
HEad  -14.0079 8.29271 -1.24295
LeftShoulder1  -0.0960414 3.76107 -31.2107
LeftArm  -6.92612 17.1777 -35.7191
LeftForeArm  26.1139 -6.68725 -6.67934
LeftHand  -0.023301 4.66369 -0.381624
RightShoulder  -0.851288 -5.93082 28.4798
RightArm  12.8355 -4.45035 48.032
RightForeArm  3.20871 12.381 6.2161
RightHand  -0.520877 1.98091 -8.38068
LeftUpLeg  -16.3231 13.9524 -10.4502
LeftLeg  17.5504 16.8717 4.18697
LeftFoot  -1.5911 -1.43978 16.8634
LeftToes  -1.95724e-009 9.62483e-011 3.51777e-011
366
root  -13.7097 38.5155 6.54 -4.1461 18.0778 0.468567
RightUpLeg  21.7541 -30.024 -17.3261
RightLeg  23.7295 -9.9751 -5.24399
RightFoot  -10.5763 -0.228839 24.3426
RightToes  4.01633e-009 0 -3.6325e-017
Spine  4.28852 1.2543 1.14314
Spine1  8.27757 2.85631 -7.37062
HEad  -12.3943 9.11545 -2.74892
LeftShoulder1  -0.127596 3.84396 -31.3984
LeftArm  -7.72833 17.5617 -35.8032
LeftForeArm  26.0903 -6.33707 -6.16638
LeftHand  -0.0204672 4.3525 -0.419649
RightShoulder  -0.781268 -5.79224 27.5124
RightArm  12.0782 -6.79832 50.4019
RightForeArm  3.54248 12.4512 6.07281
RightHand  -0.507157 1.8262 -8.32899
LeftUpLeg  -14.9819 14.3946 -10.7026
LeftLeg  19.3453 15.1313 4.43048
LeftFoot  -3.72044 -1.08676 16.5336
LeftToes  -1.95724e-009 9.62483e-011 3.51777e-011
367
root  -13.3257 38.6484 7.43099 -4.6481 19.6795 0.655212
RightUpLeg  16.939 -25.4572 -16.3152
RightLeg  34.1434 -9.52739 -7.12523
RightFoot  -2.08599 -1.5384 19.7783
RightToes  4.01633e-009 0 -3.6325e-017
Spine  4.82396 1.47835 1.97872
Spine1  7.35753 3.38161 -9.07557
HEad  -11.7457 10.6842 -4.82049
LeftShoulder1  -0.133598 3.85958 -31.5062
LeftArm  -8.35188 18.6041 -36.3627
LeftForeArm  25.5149 -8.01267 -5.8935
LeftHand  -0.0188109 4.61197 -1.08442
RightShoulder  -0.72199 -5.64254 27.1061
RightArm  15.2705 -7.25026 51.2615
RightForeArm  2.45784 12.8297 6.74822
RightHand  -0.495097 1.59601 -8.38724
LeftUpLeg  -12.2166 11.8429 -10.3401
LeftLeg  19.0427 16.6849 4.25022
LeftFoot  -4.91531 -0.87648 16.0301
LeftToes  -1.95724e-009 9.62483e-011 3.51777e-011
368
root  -12.9993 38.7211 8.23667 -4.63232 21.7902 1.38197
RightUpLeg  11.0396 -20.8724 -15.497
RightLeg  44.1498 -6.49075 -6.90665
RightFoot  8.21166 -2.16203 12.5266
RightToes  4.01633e-009 0 -3.6325e-017
Spine  5.23486 1.67916 1.4391
Spine1  6.76821 3.59455 -9.5292
HEad  -12.2445 13.3229 -6.59703
LeftShoulder1  -0.235903 4.13568 -31.1789
LeftArm  -6.75565 18.6337 -37.1939
LeftForeArm  24.1176 -10.1807 -6.36545
LeftHand  0.0105825 3.85411 -2.54333
RightShoulder  -0.716917 -5.63125 27.0409
RightArm  19.0008 -6.84814 51.3613
RightForeArm  3.93149 14.2303 6.84604
RightHand  -0.452162 2.22036 -7.08605
LeftUpLeg  -9.99468 9.45249 -10.9617
LeftLeg  18.5863 17.1688 4.09119
LeftFoot  -5.88696 -0.699877 15.3388
LeftToes  -1.95724e-009 9.62483e-011 3.51777e-011
